<?xml version="1.0" encoding="UTF-8" standalone="no"?>
<!DOCTYPE svg PUBLIC "-//W3C//DTD SVG 1.1//EN"
 "http://www.w3.org/Graphics/SVG/1.1/DTD/svg11.dtd">
<!-- Generated by sanders function
 -->
<!-- Title: G Pages: 1 -->
<svg width="82.0" height="66.0" viewBox="-5 -5 86.0 70.0" xmlns="http://www.w3.org/2000/svg" xmlns:xlink="http://www.w3.org/1999/xlink">
<title>blueprinting image</title>
<rect width="91.0" height="75.0" x="-5" y="-5" fill="#8e8e8e" />
<path fill="none" stroke="#ff00ff" d="M24,3, 0,3"/>
<text x="13.038461538461538" y="2.8846153846153846"  font-size="5" fill="green">0 </text><path fill="none" stroke="#ffff00" d="M40,3, 24,3"/>
<text x="31.25" y="2.875"  font-size="5" fill="green">1 </text><path fill="none" stroke="#ff7d00" d="M64,3, 60,4, 57,6, 53,10"/>
<text x="53.523809523809526" y="4.0476190476190474"  font-size="5" fill="green">2 </text><path fill="none" stroke="#ff7d00" d="M64,3, 40,3"/>
<text x="53.523809523809526" y="4.0476190476190474"  font-size="5" fill="green">2 </text><path fill="none" stroke="#ffff00" d="M37,6, 34,4, 30,3, 24,3"/>
<text x="31.25" y="2.875"  font-size="5" fill="green">1 </text><path fill="none" stroke="#000000" d="M40,9, 37,6"/>
<text x="38.6" y="7.0"  font-size="5" fill="green">3 </text><path fill="none" stroke="#ffafaf" d="M53,10, 49,14"/>
<text x="51.54545454545455" y="11.636363636363637"  font-size="5" fill="green">4 </text><path fill="none" stroke="#ff0000" d="M28,11, 42,11"/>
<text x="33.92857142857143" y="12.0"  font-size="5" fill="green">5 </text><path fill="none" stroke="#ff0000" d="M28,11, 30,11, 34,12, 37,14, 38,15"/>
<text x="33.92857142857143" y="12.0"  font-size="5" fill="green">5 </text><path fill="none" stroke="#000000" d="M42,11, 50,11"/>
<text x="45.5" y="11.5"  font-size="5" fill="green">6 </text><path fill="none" stroke="#ff00ff" d="M44,13, 40,9"/>
<text x="42.333333333333336" y="10.666666666666666"  font-size="5" fill="green">7 </text><path fill="none" stroke="#0000ff" d="M49,14, 46,17"/>
<text x="46.72727272727273" y="15.090909090909092"  font-size="5" fill="green">8 </text><path fill="none" stroke="#ffafaf" d="M50,11, 56,11"/>
<text x="51.54545454545455" y="11.636363636363637"  font-size="5" fill="green">4 </text><path fill="none" stroke="#ffafaf" d="M56,11, 70,11"/>
<text x="62.470588235294116" y="12.176470588235293"  font-size="5" fill="green">9 </text><path fill="none" stroke="#ffff00" d="M70,11, 74,11"/>
<text x="70.83333333333333" y="11.5"  font-size="5" fill="green">10 </text><path fill="none" stroke="#ff7d00" d="M38,15, 40,17, 42,20, 43,24, 43,26"/>
<text x="41.4" y="20.7"  font-size="5" fill="green">11 </text><path fill="none" stroke="#ff7d00" d="M46,17, 44,20, 43,24, 43,26"/>
<text x="41.4" y="20.7"  font-size="5" fill="green">11 </text><path fill="none" stroke="#0000ff" d="M48,17, 44,13"/>
<text x="46.72727272727273" y="15.090909090909092"  font-size="5" fill="green">8 </text><path fill="none" stroke="#ffafaf" d="M55,16, 57,14, 60,12, 64,11, 70,11"/>
<text x="62.470588235294116" y="12.176470588235293"  font-size="5" fill="green">9 </text><path fill="none" stroke="#ffff00" d="M43,26, 42,30, 40,33, 38,35"/>
<text x="41.333333333333336" y="31.333333333333332"  font-size="5" fill="green">12 </text><path fill="none" stroke="#ffff00" d="M43,26, 43,36"/>
<text x="41.333333333333336" y="31.333333333333332"  font-size="5" fill="green">12 </text><path fill="none" stroke="#ffafaf" d="M51,26, 51,24, 50,20, 48,17"/>
<text x="52.111111111111114" y="21.77777777777778"  font-size="5" fill="green">13 </text><path fill="none" stroke="#ffafaf" d="M51,26, 51,24, 52,20, 54,17, 55,16"/>
<text x="52.111111111111114" y="21.77777777777778"  font-size="5" fill="green">13 </text><path fill="none" stroke="#ff7d00" d="M38,35, 36,38, 35,42"/>
<text x="35.666666666666664" y="37.666666666666664"  font-size="5" fill="green">14 </text><path fill="none" stroke="#0000ff" d="M37,36, 33,40"/>
<text x="35.142857142857146" y="37.142857142857146"  font-size="5" fill="green">15 </text><path fill="none" stroke="#ff7d00" d="M40,37, 36,38, 33,40"/>
<text x="35.666666666666664" y="37.666666666666664"  font-size="5" fill="green">14 </text><path fill="none" stroke="#ff00ff" d="M43,36, 43,56"/>
<text x="43.25" y="43.708333333333336"  font-size="5" fill="green">16 </text><path fill="none" stroke="#ff00ff" d="M43,36, 43,46, 44,50, 46,53"/>
<text x="43.25" y="43.708333333333336"  font-size="5" fill="green">16 </text><path fill="none" stroke="#000000" d="M33,40, 29,44"/>
<text x="30.7" y="42.1"  font-size="5" fill="green">17 </text><path fill="none" stroke="#000000" d="M33,40, 32,41, 30,44, 29,48"/>
<text x="30.7" y="42.1"  font-size="5" fill="green">17 </text><path fill="none" stroke="#ff00ff" d="M48,41, 47,40, 44,38, 40,37"/>
<text x="43.25" y="43.708333333333336"  font-size="5" fill="green">16 </text><path fill="none" stroke="#ffff00" d="M35,42, 35,60"/>
<text x="34.85" y="50.05"  font-size="5" fill="green">18 </text><path fill="none" stroke="#0000ff" d="M29,44, 28,45, 26,48, 25,52, 25,60"/>
<text x="26.071428571428573" y="51.5"  font-size="5" fill="green">19 </text><path fill="none" stroke="#000000" d="M54,45, 52,42, 51,38, 51,26"/>
<text x="50.97435897435897" y="43.43589743589744"  font-size="5" fill="green">20 </text><path fill="none" stroke="#ffafaf" d="M29,48, 29,60"/>
<text x="28.785714285714285" y="53.07142857142857"  font-size="5" fill="green">21 </text><path fill="none" stroke="#ff00ff" d="M62,49, 58,48, 55,46, 54,45"/>
<text x="57.25" y="46.0"  font-size="5" fill="green">22 </text><path fill="none" stroke="#ff7d00" d="M68,49, 62,49"/>
<text x="68.76666666666667" y="48.1"  font-size="5" fill="green">23 </text><path fill="none" stroke="#ff7d00" d="M63,52, 67,48, 70,46, 74,45, 82,45"/>
<text x="68.76666666666667" y="48.1"  font-size="5" fill="green">23 </text><path fill="none" stroke="#ffff00" d="M43,56, 43,60"/>
<text x="42.5" y="56.833333333333336"  font-size="5" fill="green">24 </text><path fill="none" stroke="#000000" d="M46,53, 47,54, 50,56, 54,57"/>
<text x="50.97435897435897" y="43.43589743589744"  font-size="5" fill="green">20 </text><path fill="none" stroke="#ff00ff" d="M54,57, 58,56, 61,54, 63,52"/>
<text x="59.8" y="54.8"  font-size="5" fill="green">26 </text><path fill="none" stroke="#000000" d="M51,58, 51,26"/>
<text x="50.97435897435897" y="43.43589743589744"  font-size="5" fill="green">20 </text><path fill="none" stroke="#000000" d="M51,58, 51,48, 50,44, 48,41"/>
<text x="50.97435897435897" y="43.43589743589744"  font-size="5" fill="green">20 </text><path fill="none" stroke="#ff0000" d="M78,3, 64,3"/>
<text x="63.95" y="2.55"  font-size="5" fill="green">27 </text><path fill="none" stroke="#ff0000" d="M2,11, 28,11"/>
<text x="14.766666666666667" y="10.366666666666667"  font-size="5" fill="green">28 </text><path fill="none" stroke="#ff0000" d="M78,49, 68,49"/>
<text x="64.1875" y="42.6875"  font-size="5" fill="green">29 </text><path fill="none" stroke="#ff0000" d="M51,62, 51,58"/>
<text x="41.1" y="48.5"  font-size="5" fill="green">30 </text><circle r="0.5" cx="25.5" cy="1.5" fill="#00ff00" />
<circle r="0.5" cx="40.5" cy="1.5" fill="#00ffff" />
<circle r="0.5" cx="63.5" cy="1.5" fill="#00ffff" />
<circle r="0.5" cx="37.5" cy="4.5" fill="#00ffff" />
<circle r="0.5" cx="40.5" cy="7.5" fill="#00ffff" />
<circle r="0.5" cx="52.5" cy="8.5" fill="#00ffff" />
<circle r="0.5" cx="26.5" cy="12.5" fill="#00ff00" />
<circle r="0.5" cx="40.5" cy="12.5" fill="#00ffff" />
<circle r="0.5" cx="45.5" cy="12.5" fill="#00ffff" />
<circle r="0.5" cx="47.5" cy="13.5" fill="#00ffff" />
<circle r="0.5" cx="48.5" cy="12.5" fill="#00ffff" />
<circle r="0.5" cx="55.5" cy="12.5" fill="#00ffff" />
<circle r="0.5" cx="68.5" cy="12.5" fill="#00ff00" />
<circle r="0.5" cx="36.5" cy="15.5" fill="#00ffff" />
<circle r="0.5" cx="44.5" cy="16.5" fill="#00ffff" />
<circle r="0.5" cx="49.5" cy="16.5" fill="#00ffff" />
<circle r="0.5" cx="55.5" cy="17.5" fill="#00ffff" />
<circle r="0.5" cx="41.5" cy="26.5" fill="#00ff00" />
<circle r="0.5" cx="52.5" cy="27.5" fill="#00ff00" />
<circle r="0.5" cx="36.5" cy="34.5" fill="#00ffff" />
<circle r="0.5" cx="39.5" cy="35.5" fill="#00ff00" />
<circle r="0.5" cx="41.5" cy="35.5" fill="#00ffff" />
<circle r="0.5" cx="32.5" cy="38.5" fill="#00ff00" />
<circle r="0.5" cx="48.5" cy="39.5" fill="#00ffff" />
<circle r="0.5" cx="33.5" cy="41.5" fill="#00ff00" />
<circle r="0.5" cx="27.5" cy="43.5" fill="#00ff00" />
<circle r="0.5" cx="54.5" cy="43.5" fill="#00ffff" />
<circle r="0.5" cx="27.5" cy="47.5" fill="#00ff00" />
<circle r="0.5" cx="61.5" cy="47.5" fill="#00ffff" />
<circle r="0.5" cx="69.5" cy="47.5" fill="#00ffff" />
<circle r="0.5" cx="63.5" cy="53.5" fill="#00ffff" />
<circle r="0.5" cx="41.5" cy="54.5" fill="#00ffff" />
<circle r="0.5" cx="45.5" cy="54.5" fill="#00ffff" />
<circle r="0.5" cx="53.5" cy="58.5" fill="#00ffff" />
<circle r="0.5" cx="52.5" cy="59.5" fill="#00ffff" />
<circle r="2" cx="-10.0" cy="-10.0"  fill="none"  stroke="#ff0000" stroke-width="0.3" />
</svg>